<svg width="256" height="256" viewBox="0 0 256 256" fill="none" xmlns="http://www.w3.org/2000/svg">
<rect width="256" height="256" rx="64" fill="url(#paint0_linear_14_52)"/>
<path d="M128 192C112.902 192 98.2896 186.662 86.7465 176.93C75.2034 167.198 67.4727 153.698 64.9208 138.817C62.3689 123.936 65.1602 108.632 72.8013 95.6101C80.4424 82.5882 92.4412 72.687 106.677 67.6566C120.912 62.6263 136.468 62.7907 150.594 68.121C164.72 73.4512 176.507 83.6039 183.871 96.7845C191.235 109.965 193.702 125.325 190.836 140.149C187.97 154.972 179.956 168.305 168.21 177.791L148.557 153.455C154.562 148.606 158.659 141.789 160.124 134.211C161.59 126.632 160.328 118.78 156.564 112.041C152.799 105.303 146.773 100.112 139.551 97.3875C132.329 94.6625 124.377 94.5784 117.099 97.1501C109.821 99.7218 103.687 104.784 99.7803 111.441C95.8738 118.098 94.4468 125.922 95.7514 133.53C97.056 141.138 101.008 148.04 106.91 153.015C112.811 157.99 120.281 160.719 128 160.719L128 192Z" fill="white"/>
<defs>
<linearGradient id="paint0_linear_14_52" x1="0" y1="0" x2="256" y2="256" gradientUnits="userSpaceOnUse">
<stop stop-color="#5CA1FE"/>
<stop offset="1" stop-color="#217BF4"/>
</linearGradient>
</defs>
</svg>
